# xmcd
#
# Track frame offsets: 
#        150
#        22957
#        41465
#        61494
#        80154
#        100937
#        117786
#        134744
#        154783
#        176471
#        199293
#        217330
#        234150
#        255316
#        273835
#        296924
#        310991
#
# Disc length: 4396 seconds
#
# Revision: 0
# Processed by: cddbd v1.5.2PL0 Copyright (c) Steve Scherf et al.
# Submitted via: ExactAudioCopy v0.99pb3
#
DISCID=f8112a11
DTITLE=Various Artist - (All Music) 07-1998 - Top Slow
DYEAR=1998
DGENRE=Slow Rock
TTITLE0=Celine Dion - Let's Talk About Love
TTITLE1=Hanson - I Will Come To You
TTITLE2=Spice Girls - Too Much
TTITLE3=Boyzone - Shooting Star
TTITLE4=Celine Dion - My Heart Will Go On
TTITLE5=Peter Andre - Lonely
TTITLE6=All Saints - Never Ever
TTITLE7=Boyz II Men - 4 Seasons Of Lonelinness
TTITLE8=Celine Dion and Barbra Streisand - Tell Him
TTITLE9=Paul McCartney - Beautiful Night
TTITLE10=Conner Reeves - Earthbound
TTITLE11=Bono, Boyzone, David Bowie, Elton John e.o. - Perfect Day
TTITLE12=Celine Dion and Luciano Pavarotti - I Hate You Then I Love You
TTITLE13=Matthew Fisher - Why'd I Have To Fall In Love
TTITLE14=Spice Girls - Viva Forever
TTITLE15=Yanni and Vann Johnson - Love Is All
TTITLE16=Celine Dion - Amar Hacuendo El Amor
EXTD=
EXTT0=
EXTT1=
EXTT2=
EXTT3=
EXTT4=
EXTT5=
EXTT6=
EXTT7=
EXTT8=
EXTT9=
EXTT10=
EXTT11=
EXTT12=
EXTT13=
EXTT14=
EXTT15=
EXTT16=
PLAYORDER=
